<?xml version="1.0" encoding="UTF-8" standalone="no"?>
<!DOCTYPE svg PUBLIC "-//W3C//DTD SVG 1.1//EN"
 "http://www.w3.org/Graphics/SVG/1.1/DTD/svg11.dtd">
<!-- Generated by graphviz version 2.40.1 (20161225.0304)
 -->
<!-- Title: %3 Pages: 1 -->
<svg width="953pt" height="350pt"
 viewBox="0.00 0.00 953.00 350.00" xmlns="http://www.w3.org/2000/svg" xmlns:xlink="http://www.w3.org/1999/xlink">
<g id="graph0" class="graph" transform="scale(1 1) rotate(0) translate(4 346)">
<title>%3</title>
<polygon fill="#ffffff" stroke="transparent" points="-4,4 -4,-346 949,-346 949,4 -4,4"/>
<!-- Algorithm -->
<g id="node1" class="node">
<title>Algorithm</title>
<polygon fill="#ededed" stroke="transparent" points="527,-84 527,-284 675,-284 675,-84 527,-84"/>
<polygon fill="none" stroke="#000000" points="527,-264 527,-284 675,-284 675,-264 527,-264"/>
<text text-anchor="start" x="579.8818" y="-272" font-family="Helvetica,sans-Serif" font-weight="bold" font-size="10.00" fill="#000000">Algorithm</text>
<polygon fill="none" stroke="#000000" points="527,-244 527,-264 675,-264 675,-244 527,-244"/>
<text text-anchor="start" x="531.7935" y="-252" font-family="Helvetica,sans-Serif" text-decoration="underline" font-size="10.00" fill="#000000">_id</text>
<text text-anchor="start" x="545.1382" y="-252" font-family="Helvetica,sans-Serif" font-size="10.00" fill="#000000"> [ObjectID, required, unique]</text>
<polygon fill="none" stroke="#000000" points="527,-224 527,-244 675,-244 675,-224 527,-224"/>
<text text-anchor="start" x="532" y="-232" font-family="Helvetica,sans-Serif" font-size="10.00" fill="#000000">title</text>
<text text-anchor="start" x="547.5615" y="-232" font-family="Helvetica,sans-Serif" font-size="10.00" fill="#000000"> [String, required]</text>
<polygon fill="none" stroke="#000000" points="527,-204 527,-224 675,-224 675,-204 527,-204"/>
<text text-anchor="start" x="532" y="-212" font-family="Helvetica,sans-Serif" font-size="10.00" fill="#000000">owner</text>
<text text-anchor="start" x="559.2363" y="-212" font-family="Helvetica,sans-Serif" font-size="10.00" fill="#000000"> [String, required]</text>
<polygon fill="none" stroke="#000000" points="527,-184 527,-204 675,-204 675,-184 527,-184"/>
<text text-anchor="start" x="532" y="-192" font-family="Helvetica,sans-Serif" font-size="10.00" fill="#000000">description</text>
<text text-anchor="start" x="580.3594" y="-192" font-family="Helvetica,sans-Serif" font-size="10.00" fill="#000000"> [String, required]</text>
<polygon fill="none" stroke="#000000" points="527,-164 527,-184 675,-184 675,-164 527,-164"/>
<text text-anchor="start" x="532" y="-172" font-family="Helvetica,sans-Serif" font-size="10.00" fill="#000000">inputs</text>
<text text-anchor="start" x="558.6846" y="-172" font-family="Helvetica,sans-Serif" font-size="10.00" fill="#000000"> [String, required]</text>
<polygon fill="none" stroke="#000000" points="527,-144 527,-164 675,-164 675,-144 527,-144"/>
<text text-anchor="start" x="532" y="-152" font-family="Helvetica,sans-Serif" font-size="10.00" fill="#000000">gpu</text>
<text text-anchor="start" x="548.6846" y="-152" font-family="Helvetica,sans-Serif" font-size="10.00" fill="#000000"> [Boolean]</text>
<polygon fill="none" stroke="#000000" points="527,-124 527,-144 675,-144 675,-124 527,-124"/>
<text text-anchor="start" x="532" y="-132" font-family="Helvetica,sans-Serif" font-size="10.00" fill="#000000">dispatcher</text>
<text text-anchor="start" x="578.1377" y="-132" font-family="Helvetica,sans-Serif" font-size="10.00" fill="#000000"> [FilePointer]</text>
<polygon fill="none" stroke="#000000" points="527,-104 527,-124 675,-124 675,-104 527,-104"/>
<text text-anchor="start" x="532" y="-112" font-family="Helvetica,sans-Serif" font-size="10.00" fill="#000000">runner</text>
<text text-anchor="start" x="560.9063" y="-112" font-family="Helvetica,sans-Serif" font-size="10.00" fill="#000000"> [FilePointer]</text>
<polygon fill="none" stroke="#000000" points="527,-84 527,-104 675,-104 675,-84 527,-84"/>
<text text-anchor="start" x="532" y="-92" font-family="Helvetica,sans-Serif" font-size="10.00" fill="#000000">reducer</text>
<text text-anchor="start" x="565.9063" y="-92" font-family="Helvetica,sans-Serif" font-size="10.00" fill="#000000"> [FilePointer]</text>
</g>
<!-- User -->
<g id="node5" class="node">
<title>User</title>
<polygon fill="#ededed" stroke="transparent" points="764,-4 764,-184 937,-184 937,-4 764,-4"/>
<polygon fill="none" stroke="#000000" points="764.5,-164 764.5,-184 937.5,-184 937.5,-164 764.5,-164"/>
<text text-anchor="start" x="840.4434" y="-172" font-family="Helvetica,sans-Serif" font-weight="bold" font-size="10.00" fill="#000000">User</text>
<polygon fill="none" stroke="#000000" points="764.5,-144 764.5,-164 937.5,-164 937.5,-144 764.5,-144"/>
<text text-anchor="start" x="769.5" y="-152" font-family="Helvetica,sans-Serif" text-decoration="underline" font-size="10.00" fill="#000000">_id</text>
<text text-anchor="start" x="782.8447" y="-152" font-family="Helvetica,sans-Serif" font-size="10.00" fill="#000000"> [ObjectID, required, unique]</text>
<polygon fill="none" stroke="#000000" points="764.5,-124 764.5,-144 937.5,-144 937.5,-124 764.5,-124"/>
<text text-anchor="start" x="769.5" y="-132" font-family="Helvetica,sans-Serif" font-size="10.00" fill="#000000">username</text>
<text text-anchor="start" x="813.9678" y="-132" font-family="Helvetica,sans-Serif" font-size="10.00" fill="#000000"> [String, required]</text>
<polygon fill="none" stroke="#000000" points="764.5,-104 764.5,-124 937.5,-124 937.5,-104 764.5,-104"/>
<text text-anchor="start" x="769.5" y="-112" font-family="Helvetica,sans-Serif" font-size="10.00" fill="#000000">password</text>
<text text-anchor="start" x="812.2979" y="-112" font-family="Helvetica,sans-Serif" font-size="10.00" fill="#000000"> [String, required]</text>
<polygon fill="none" stroke="#000000" points="764.5,-84 764.5,-104 937.5,-104 937.5,-84 764.5,-84"/>
<text text-anchor="start" x="769.5" y="-92" font-family="Helvetica,sans-Serif" font-size="10.00" fill="#000000">email</text>
<text text-anchor="start" x="793.3965" y="-92" font-family="Helvetica,sans-Serif" font-size="10.00" fill="#000000"> [String, required]</text>
<polygon fill="none" stroke="#000000" points="764.5,-64 764.5,-84 937.5,-84 937.5,-64 764.5,-64"/>
<text text-anchor="start" x="769.3423" y="-72" font-family="Helvetica,sans-Serif" font-size="10.00" fill="#000000">type</text>
<text text-anchor="start" x="788.2437" y="-72" font-family="Helvetica,sans-Serif" font-size="10.00" fill="#000000"> [String, required, &#39;CONSUMER&#39;]</text>
<polygon fill="none" stroke="#000000" points="764.5,-44 764.5,-64 937.5,-64 937.5,-44 764.5,-44"/>
<text text-anchor="start" x="769.5" y="-52" font-family="Helvetica,sans-Serif" font-size="10.00" fill="#000000">firstName</text>
<text text-anchor="start" x="812.2832" y="-52" font-family="Helvetica,sans-Serif" font-size="10.00" fill="#000000"> [String, required]</text>
<polygon fill="none" stroke="#000000" points="764.5,-24 764.5,-44 937.5,-44 937.5,-24 764.5,-24"/>
<text text-anchor="start" x="769.5" y="-32" font-family="Helvetica,sans-Serif" font-size="10.00" fill="#000000">lastName</text>
<text text-anchor="start" x="811.7363" y="-32" font-family="Helvetica,sans-Serif" font-size="10.00" fill="#000000"> [String]</text>
<polygon fill="none" stroke="#000000" points="764.5,-4 764.5,-24 937.5,-24 937.5,-4 764.5,-4"/>
<text text-anchor="start" x="769.5" y="-12" font-family="Helvetica,sans-Serif" font-size="10.00" fill="#000000">activationToken</text>
<text text-anchor="start" x="838.4307" y="-12" font-family="Helvetica,sans-Serif" font-size="10.00" fill="#000000"> [String]</text>
</g>
<!-- Algorithm&#45;&#45;User -->
<g id="edge1" class="edge">
<title>Algorithm&#45;&#45;User</title>
<path fill="none" stroke="#7f7f7f" stroke-dasharray="5,2" d="M683.0412,-134C706.3342,-134 731.8864,-134 755.8607,-134"/>
<text text-anchor="start" x="748.8607" y="-122.8" font-family="Times,serif" font-size="14.00" fill="#000000">1</text>
<text text-anchor="start" x="683.0412" y="-122.8" font-family="Times,serif" font-size="14.00" fill="#000000">0..N</text>
</g>
<!-- Job -->
<g id="node2" class="node">
<title>Job</title>
<polygon fill="#ededed" stroke="transparent" points="280,-46 280,-226 438,-226 438,-46 280,-46"/>
<polygon fill="none" stroke="#000000" points="280,-206 280,-226 438,-226 438,-206 280,-206"/>
<text text-anchor="start" x="350.9385" y="-214" font-family="Helvetica,sans-Serif" font-weight="bold" font-size="10.00" fill="#000000">Job</text>
<polygon fill="none" stroke="#000000" points="280,-186 280,-206 438,-206 438,-186 280,-186"/>
<text text-anchor="start" x="285" y="-194" font-family="Helvetica,sans-Serif" text-decoration="underline" font-size="10.00" fill="#000000">_id</text>
<text text-anchor="start" x="298.3447" y="-194" font-family="Helvetica,sans-Serif" font-size="10.00" fill="#000000"> [ObjectID, required, unique]</text>
<polygon fill="none" stroke="#000000" points="280,-166 280,-186 438,-186 438,-166 280,-166"/>
<text text-anchor="start" x="285" y="-174" font-family="Helvetica,sans-Serif" font-size="10.00" fill="#000000">title</text>
<text text-anchor="start" x="300.5615" y="-174" font-family="Helvetica,sans-Serif" font-size="10.00" fill="#000000"> [String, required]</text>
<polygon fill="none" stroke="#000000" points="280,-146 280,-166 438,-166 438,-146 280,-146"/>
<text text-anchor="start" x="285" y="-154" font-family="Helvetica,sans-Serif" font-style="italic" font-size="10.00" fill="#000000">owner</text>
<text text-anchor="start" x="312.2363" y="-154" font-family="Helvetica,sans-Serif" font-size="10.00" fill="#000000"> [String, required]</text>
<polygon fill="none" stroke="#000000" points="280,-126 280,-146 438,-146 438,-126 280,-126"/>
<text text-anchor="start" x="285" y="-134" font-family="Helvetica,sans-Serif" font-size="10.00" fill="#000000">description</text>
<text text-anchor="start" x="333.3594" y="-134" font-family="Helvetica,sans-Serif" font-size="10.00" fill="#000000"> [String, required]</text>
<polygon fill="none" stroke="#000000" points="280,-106 280,-126 438,-126 438,-106 280,-106"/>
<text text-anchor="start" x="285" y="-114" font-family="Helvetica,sans-Serif" font-style="italic" font-size="10.00" fill="#000000">algorithmId</text>
<text text-anchor="start" x="334.4678" y="-114" font-family="Helvetica,sans-Serif" font-size="10.00" fill="#000000"> [String, required]</text>
<polygon fill="none" stroke="#000000" points="280,-86 280,-106 438,-106 438,-86 280,-86"/>
<text text-anchor="start" x="284.7861" y="-94" font-family="Helvetica,sans-Serif" font-size="10.00" fill="#000000">finished</text>
<text text-anchor="start" x="319.2539" y="-94" font-family="Helvetica,sans-Serif" font-size="10.00" fill="#000000"> [Boolean, required, false]</text>
<polygon fill="none" stroke="#000000" points="280,-66 280,-86 438,-86 438,-66 280,-66"/>
<text text-anchor="start" x="285" y="-74" font-family="Helvetica,sans-Serif" font-size="10.00" fill="#000000">inputs</text>
<text text-anchor="start" x="311.6846" y="-74" font-family="Helvetica,sans-Serif" font-size="10.00" fill="#000000"> [FilePointer]</text>
<polygon fill="none" stroke="#000000" points="280,-46 280,-66 438,-66 438,-46 280,-46"/>
<text text-anchor="start" x="285" y="-54" font-family="Helvetica,sans-Serif" font-size="10.00" fill="#000000">results</text>
<text text-anchor="start" x="314.4531" y="-54" font-family="Helvetica,sans-Serif" font-size="10.00" fill="#000000"> [Object]</text>
</g>
<!-- Job&#45;&#45;Algorithm -->
<g id="edge3" class="edge">
<title>Job&#45;&#45;Algorithm</title>
<path fill="none" stroke="#7f7f7f" stroke-dasharray="5,2" d="M446.0257,-155C469.7392,-155 495.3472,-155 518.7843,-155"/>
<text text-anchor="start" x="511.7843" y="-143.8" font-family="Times,serif" font-size="14.00" fill="#000000">1</text>
<text text-anchor="start" x="446.0257" y="-143.8" font-family="Times,serif" font-size="14.00" fill="#000000">0..N</text>
</g>
<!-- Job&#45;&#45;User -->
<g id="edge2" class="edge">
<title>Job&#45;&#45;User</title>
<path fill="none" stroke="#7f7f7f" stroke-dasharray="5,2" d="M446.0213,-61C533.0112,-61 666.3798,-61 755.9376,-61"/>
<text text-anchor="start" x="748.9376" y="-49.8" font-family="Times,serif" font-size="14.00" fill="#000000">1</text>
<text text-anchor="start" x="446.0213" y="-49.8" font-family="Times,serif" font-size="14.00" fill="#000000">0..N</text>
</g>
<!-- Block -->
<g id="node3" class="node">
<title>Block</title>
<polygon fill="#ededed" stroke="transparent" points="8,-178 8,-338 191,-338 191,-178 8,-178"/>
<polygon fill="none" stroke="#000000" points="8.5,-318 8.5,-338 191.5,-338 191.5,-318 8.5,-318"/>
<text text-anchor="start" x="87.7734" y="-326" font-family="Helvetica,sans-Serif" font-weight="bold" font-size="10.00" fill="#000000">Block</text>
<polygon fill="none" stroke="#000000" points="8.5,-298 8.5,-318 191.5,-318 191.5,-298 8.5,-298"/>
<text text-anchor="start" x="13.5" y="-306" font-family="Helvetica,sans-Serif" text-decoration="underline" font-size="10.00" fill="#000000">_id</text>
<text text-anchor="start" x="26.8447" y="-306" font-family="Helvetica,sans-Serif" font-size="10.00" fill="#000000"> [ObjectID, required, unique]</text>
<polygon fill="none" stroke="#000000" points="8.5,-278 8.5,-298 191.5,-298 191.5,-278 8.5,-278"/>
<text text-anchor="start" x="13.5" y="-286" font-family="Helvetica,sans-Serif" font-style="italic" font-size="10.00" fill="#000000">jobId</text>
<text text-anchor="start" x="35.1846" y="-286" font-family="Helvetica,sans-Serif" font-size="10.00" fill="#000000"> [String, required]</text>
<polygon fill="none" stroke="#000000" points="8.5,-258 8.5,-278 191.5,-278 191.5,-258 8.5,-258"/>
<text text-anchor="start" x="13.5" y="-266" font-family="Helvetica,sans-Serif" font-style="italic" font-size="10.00" fill="#000000">algorithmId</text>
<text text-anchor="start" x="62.9678" y="-266" font-family="Helvetica,sans-Serif" font-size="10.00" fill="#000000"> [String, required]</text>
<polygon fill="none" stroke="#000000" points="8.5,-238 8.5,-258 191.5,-258 191.5,-238 8.5,-238"/>
<text text-anchor="start" x="13.5" y="-246" font-family="Helvetica,sans-Serif" font-size="10.00" fill="#000000">running</text>
<text text-anchor="start" x="46.8594" y="-246" font-family="Helvetica,sans-Serif" font-size="10.00" fill="#000000"> [Boolean, required, false]</text>
<polygon fill="none" stroke="#000000" points="8.5,-218 8.5,-238 191.5,-238 191.5,-218 8.5,-218"/>
<text text-anchor="start" x="13.5" y="-226" font-family="Helvetica,sans-Serif" font-size="10.00" fill="#000000">validated</text>
<text text-anchor="start" x="53.5293" y="-226" font-family="Helvetica,sans-Serif" font-size="10.00" fill="#000000"> [Boolean, required, false]</text>
<polygon fill="none" stroke="#000000" points="8.5,-198 8.5,-218 191.5,-218 191.5,-198 8.5,-198"/>
<text text-anchor="start" x="13.5" y="-206" font-family="Helvetica,sans-Serif" font-size="10.00" fill="#000000">inputs</text>
<text text-anchor="start" x="40.1846" y="-206" font-family="Helvetica,sans-Serif" font-size="10.00" fill="#000000"> [Object, required]</text>
<polygon fill="none" stroke="#000000" points="8.5,-178 8.5,-198 191.5,-198 191.5,-178 8.5,-178"/>
<text text-anchor="start" x="13.0176" y="-186" font-family="Helvetica,sans-Serif" font-size="10.00" fill="#000000">results</text>
<text text-anchor="start" x="42.4707" y="-186" font-family="Helvetica,sans-Serif" font-size="10.00" fill="#000000"> [[blockResultSchema], required]</text>
</g>
<!-- Block&#45;&#45;Algorithm -->
<g id="edge5" class="edge">
<title>Block&#45;&#45;Algorithm</title>
<path fill="none" stroke="#7f7f7f" stroke-dasharray="5,2" d="M199.1799,-259C292.8729,-259 431.4289,-259 518.9155,-259"/>
<text text-anchor="start" x="511.9155" y="-247.8" font-family="Times,serif" font-size="14.00" fill="#000000">1</text>
<text text-anchor="start" x="199.1799" y="-247.8" font-family="Times,serif" font-size="14.00" fill="#000000">0..N</text>
</g>
<!-- Block&#45;&#45;Job -->
<g id="edge4" class="edge">
<title>Block&#45;&#45;Job</title>
<path fill="none" stroke="#7f7f7f" stroke-dasharray="5,2" d="M199.0873,-202C223.0996,-202 248.571,-202 271.9587,-202"/>
<text text-anchor="start" x="264.9587" y="-190.8" font-family="Times,serif" font-size="14.00" fill="#000000">1</text>
<text text-anchor="start" x="199.0873" y="-190.8" font-family="Times,serif" font-size="14.00" fill="#000000">0..N</text>
</g>
<!-- Block&#45;&#45;User -->
<g id="edge6" class="edge">
<title>Block&#45;&#45;User</title>
<path fill="none" stroke="#7f7f7f" stroke-dasharray="5,2" d="M191,-173.8271C191,-108.6268 191,-29.3333 191,-29.3333 191,-29.3333 573.1617,-29.3333 755.6588,-29.3333"/>
<text text-anchor="start" x="731.5484" y="-18.1333" font-family="Times,serif" font-size="14.00" fill="#000000">0..N</text>
<text text-anchor="start" x="166.8896" y="-162.6271" font-family="Times,serif" font-size="14.00" fill="#000000">0..N</text>
</g>
<!-- Credit -->
<g id="node4" class="node">
<title>Credit</title>
<polygon fill="#ededed" stroke="transparent" points="25.5,-8 25.5,-108 173.5,-108 173.5,-8 25.5,-8"/>
<polygon fill="none" stroke="#000000" points="25.5,-88 25.5,-108 173.5,-108 173.5,-88 25.5,-88"/>
<text text-anchor="start" x="86.1626" y="-96" font-family="Helvetica,sans-Serif" font-weight="bold" font-size="10.00" fill="#000000">Credit</text>
<polygon fill="none" stroke="#000000" points="25.5,-68 25.5,-88 173.5,-88 173.5,-68 25.5,-68"/>
<text text-anchor="start" x="30.2935" y="-76" font-family="Helvetica,sans-Serif" text-decoration="underline" font-size="10.00" fill="#000000">_id</text>
<text text-anchor="start" x="43.6382" y="-76" font-family="Helvetica,sans-Serif" font-size="10.00" fill="#000000"> [ObjectID, required, unique]</text>
<polygon fill="none" stroke="#000000" points="25.5,-48 25.5,-68 173.5,-68 173.5,-48 25.5,-48"/>
<text text-anchor="start" x="30.5" y="-56" font-family="Helvetica,sans-Serif" font-style="italic" font-size="10.00" fill="#000000">jobId</text>
<text text-anchor="start" x="52.1846" y="-56" font-family="Helvetica,sans-Serif" font-size="10.00" fill="#000000"> [String]</text>
<polygon fill="none" stroke="#000000" points="25.5,-28 25.5,-48 173.5,-48 173.5,-28 25.5,-28"/>
<text text-anchor="start" x="30.5" y="-36" font-family="Helvetica,sans-Serif" font-style="italic" font-size="10.00" fill="#000000">owner</text>
<text text-anchor="start" x="57.7363" y="-36" font-family="Helvetica,sans-Serif" font-size="10.00" fill="#000000"> [String, required]</text>
<polygon fill="none" stroke="#000000" points="25.5,-8 25.5,-28 173.5,-28 173.5,-8 25.5,-8"/>
<text text-anchor="start" x="30.5" y="-16" font-family="Helvetica,sans-Serif" font-size="10.00" fill="#000000">value</text>
<text text-anchor="start" x="54.4063" y="-16" font-family="Helvetica,sans-Serif" font-size="10.00" fill="#000000"> [Number, required]</text>
</g>
<!-- Credit&#45;&#45;Job -->
<g id="edge8" class="edge">
<title>Credit&#45;&#45;Job</title>
<path fill="none" stroke="#7f7f7f" stroke-dasharray="5,2" d="M181.6074,-77C210.2654,-77 242.5243,-77 271.5973,-77"/>
<text text-anchor="start" x="240.6579" y="-65.8" font-family="Times,serif" font-size="14.00" fill="#000000">{0,1}</text>
<text text-anchor="start" x="181.6074" y="-65.8" font-family="Times,serif" font-size="14.00" fill="#000000">0..N</text>
</g>
<!-- Credit&#45;&#45;User -->
<g id="edge7" class="edge">
<title>Credit&#45;&#45;User</title>
<path fill="none" stroke="#7f7f7f" stroke-dasharray="5,2" d="M181.6588,-16.6667C322.0997,-16.6667 607.513,-16.6667 755.9878,-16.6667"/>
<text text-anchor="start" x="748.9878" y="-5.4667" font-family="Times,serif" font-size="14.00" fill="#000000">1</text>
<text text-anchor="start" x="181.6588" y="-5.4667" font-family="Times,serif" font-size="14.00" fill="#000000">0..N</text>
</g>
</g>
</svg>
